<svg width="35" height="35" viewBox="0 0 35 35" fill="none" xmlns="http://www.w3.org/2000/svg">
<g id="plus-square">
<path id="Icon" d="M17.5 11.6667V23.3333M11.6667 17.5H23.3333M11.375 30.625H23.625C26.0752 30.625 27.3003 30.625 28.2362 30.1482C29.0594 29.7287 29.7287 29.0594 30.1482 28.2362C30.625 27.3003 30.625 26.0752 30.625 23.625V11.375C30.625 8.92477 30.625 7.69966 30.1482 6.76379C29.7287 5.94058 29.0594 5.27129 28.2362 4.85185C27.3003 4.375 26.0752 4.375 23.625 4.375H11.375C8.92477 4.375 7.69966 4.375 6.76379 4.85185C5.94058 5.27129 5.27129 5.94058 4.85185 6.76379C4.375 7.69966 4.375 8.92477 4.375 11.375V23.625C4.375 26.0752 4.375 27.3003 4.85185 28.2362C5.27129 29.0594 5.94058 29.7287 6.76379 30.1482C7.69966 30.625 8.92477 30.625 11.375 30.625Z" stroke="#D48D8D" stroke-width="2" stroke-linecap="round" stroke-linejoin="round"/>
</g>
</svg>
